<?xml version="1.0" encoding="UTF-8"?>
<!DOCTYPE svg PUBLIC "-//W3C//DTD SVG 1.1//EN" "http://www.w3.org/Graphics/SVG/1.1/DTD/svg11.dtd">
<svg version="1.1" xmlns="http://www.w3.org/2000/svg" xmlns:xlink="http://www.w3.org/1999/xlink" x="0" y="0" width="736" height="145" viewBox="0, 0, 736, 145">
  <g id="Background">
    <rect x="0" y="0" width="736" height="145" fill="#FFFFFF"/>
  </g>
  <g id="Background" display="none">
    <path d="M0,0 L850,0 L850,310 L0,310 z" fill="#FFFFFF"/>
  </g>
  <g id="Layer_1">
    <path d="M64.665,0.017 C84.165,-0.512 101.994,11.503 115.706,35.553 C117.621,38.911 116.453,43.187 113.098,45.104 C109.744,47.021 105.472,45.852 103.557,42.494 C92.221,22.613 78.905,13.639 65.043,14.015 C52.662,14.35 39.687,22.32 29.58,35.58 C19.421,48.91 13.56,65.793 14.013,81.201 C14.505,97.907 22.176,111.685 37.315,120.637 C48.868,127.468 52.726,128.699 61.619,127.237 C69.691,125.911 84.392,116.776 93.751,106.684 C98.602,101.453 101.614,96.445 102.381,92.458 C103.079,88.782 101.682,86.448 98.837,84.242 C98.429,84.098 98.684,84.184 98.067,83.997 C97.108,83.724 95.789,83.426 94.186,83.123 C91.003,82.52 86.872,81.928 82.441,81.433 C77.561,80.893 72.665,80.477 67.757,80.314 L66.694,80.355 C65.273,80.41 64.206,80.45 63.48,80.473 C63.069,80.486 62.762,80.495 62.542,80.499 C62.355,80.502 62.214,80.503 62.047,80.498 C61.884,80.521 61.884,80.521 60.261,80.224 C59.732,80.067 59.732,80.067 58.744,79.584 C58.102,79.199 58.102,79.199 56.993,78.172 C56.751,77.893 56.751,77.893 56.027,76.791 C55.77,76.262 55.77,76.262 55.235,74.153 C55.235,74.153 55.235,74.153 55.405,71.83 C55.405,71.831 55.405,71.831 55.728,70.836 C56.565,69.256 56.565,69.256 57.373,68.427 C58.651,67.418 58.651,67.418 59.327,67.111 C60.724,66.625 60.724,66.625 61.031,66.591 C63.14,66.262 65.283,66.279 67.411,66.314 C70.282,66.2 73.154,66.083 76.025,65.966 C76.042,65.965 76.042,65.965 76.059,65.964 C86.33,65.546 89.51,65.422 90.392,65.422 C96.067,65.422 100.614,65.356 110.852,65.156 C111.136,65.151 111.136,65.151 111.419,65.145 C121.126,64.956 125.906,64.888 131.581,64.888 C135.444,64.888 138.575,68.022 138.575,71.889 C138.575,75.756 135.444,78.891 131.581,78.891 C125.411,78.887 119.242,79.001 113.073,79.119 C116.398,84.026 117.03,89.357 116.118,95.106 C114.775,102.085 110.478,109.23 104.003,116.211 C92.695,128.405 75.374,139.168 63.885,141.055 C56.789,142.222 50.784,141.846 44.955,139.987 C40.511,138.569 37.398,136.95 30.2,132.694 C10.809,121.228 0.66,102.998 0.031,81.613 C-0.521,62.874 6.419,42.883 18.458,27.087 C30.936,10.716 47.601,0.479 64.665,0.017 z M62.511,66.49 L62.483,66.493 L62.525,66.492 L62.511,66.49 z" fill="#17573E"/>
    <path d="M219.763,1.44 C223.626,1.44 226.757,4.575 226.757,8.442 C226.757,12.309 223.626,15.443 219.763,15.443 L161.892,15.443 C161.866,18.152 161.861,20.862 161.853,23.571 C161.833,31.797 161.849,42.968 161.892,56.781 C161.91,62.636 161.933,68.81 161.961,75.629 C161.974,78.786 161.988,81.941 162.004,85.716 C162.009,86.806 162.035,92.758 162.042,94.261 C162.067,100.216 162.078,103.125 162.078,104.453 C162.078,104.97 162.056,112.962 162.054,113.823 C162.048,116.18 162.043,118.344 162.039,120.393 C162.034,123.414 162.028,126.435 162.03,129.455 L219.763,129.455 C223.626,129.455 226.757,132.59 226.757,136.457 C226.757,140.324 223.626,143.459 219.763,143.458 L155.084,143.458 C147.13,137.159 147.13,137.159 148.124,137.177 C148.096,136.869 148.096,136.869 148.088,136.718 C148.081,136.579 148.077,136.432 148.073,136.253 C148.066,135.982 148.062,135.612 148.058,135.135 C148.05,134.268 148.045,133.03 148.043,131.443 C148.039,128.689 148.042,124.952 148.05,120.367 C148.054,118.314 148.059,116.147 148.065,113.787 C148.068,112.881 148.089,104.947 148.089,104.453 C148.089,103.155 148.079,100.246 148.053,94.322 C148.046,92.819 148.02,86.867 148.015,85.777 C147.999,82.001 147.985,78.845 147.973,75.687 C147.945,68.863 147.922,62.685 147.903,56.825 C147.86,42.989 147.844,31.795 147.864,23.538 C147.875,18.784 147.898,15.081 147.933,12.501 C147.953,11.106 147.976,10.033 148.003,9.272 C148.02,8.817 148.039,8.454 148.064,8.144 C148.088,7.86 148.116,7.607 148.168,7.311 C149.076,2.09 149.308,1.44 155.084,1.44 L219.763,1.44 z M162.047,135.082 C162.052,135.605 162.049,135.402 162.054,135.691 C162.85,135.755 162.319,135.327 162.047,135.082 z" fill="#17573E"/>
    <path d="M179.18,65.409 L183.389,65.411 C187.858,65.414 191.898,65.419 199.07,65.428 C210.763,65.444 214.484,65.448 219.558,65.448 C223.421,65.448 226.553,68.583 226.553,72.449 C226.553,76.316 223.421,79.451 219.558,79.451 C214.475,79.451 210.751,79.447 199.051,79.431 C191.882,79.422 187.844,79.417 183.379,79.414 C171.886,79.407 162.78,79.417 154.881,79.451 C151.018,79.468 147.873,76.347 147.856,72.48 C147.839,68.613 150.957,65.465 154.82,65.448 C162.94,65.411 171.06,65.41 179.18,65.409 z" fill="#17573E"/>
    <path d="M272.722,1.472 C280.703,1.13 288.075,3.661 294.712,7.953 C308.564,17.467 317.117,33.577 320.958,53.976 C324.04,70.343 323.892,88.974 321.137,105.319 C316.506,133.334 296.58,147.095 274.448,139.685 C253.29,132.602 237.374,108.501 235.139,76.863 C234.064,61.181 234.045,52.553 235.739,42.796 L235.762,42.667 C237.298,34.707 239.943,27.26 243.727,20.54 C245.624,17.171 249.889,15.98 253.255,17.879 C256.62,19.777 257.81,24.047 255.913,27.416 C252.731,32.945 250.827,39.045 249.512,45.255 C247.753,55.383 248.419,65.696 249.094,75.889 C250.955,102.228 263.525,121.263 278.885,126.405 C292.44,130.943 304.047,122.928 307.339,103.011 C309.835,88.202 309.97,71.222 307.211,56.57 C303.995,39.489 297.161,26.618 286.797,19.5 C280.673,15.294 273.724,14.333 266.749,16.737 C263.096,17.996 259.116,16.052 257.859,12.396 C256.601,8.74 258.543,4.755 262.195,3.496 C265.578,2.192 269.152,1.837 272.722,1.472 z" fill="#17573E"/>
    <path d="M490.232,1.44 C494.095,1.44 497.226,4.575 497.226,8.442 C497.226,32.616 501.565,68.416 509.571,93.258 C514.628,108.949 520.937,120.011 528.073,125.307 C535.343,130.702 543.829,130.269 555.252,122.345 C564.81,115.714 570.623,97.358 572.277,70.997 C573.531,51.016 572.3,27.895 569.848,9.361 C569.341,5.527 572.034,2.008 575.864,1.501 C579.693,0.993 583.209,3.689 583.716,7.523 C586.278,26.891 587.555,50.885 586.238,71.875 C584.333,102.247 577.45,123.983 563.219,133.854 C547.146,145.004 532.157,145.77 519.741,136.555 C509.753,129.142 502.129,115.775 496.258,97.557 C487.743,71.139 483.237,33.957 483.237,8.442 C483.237,4.575 486.369,1.44 490.232,1.44 z" fill="#17573E"/>
    <path d="M610.31,1.447 C614.169,1.621 617.157,4.893 616.984,8.756 C616.238,25.379 616.092,45.05 616.35,72.323 C616.41,78.689 616.479,84.461 616.611,94.739 C616.909,117.869 616.991,125.945 616.991,136.457 C616.991,140.324 613.859,143.459 609.996,143.458 C606.133,143.459 603.002,140.324 603.002,136.457 C603.002,126.029 602.92,117.982 602.623,94.92 C602.491,84.626 602.422,78.842 602.362,72.456 C602.102,44.948 602.249,25.065 603.009,8.128 C603.182,4.265 606.451,1.274 610.31,1.447 z" fill="#17573E"/>
    <path d="M721.918,1.44 L722.691,1.445 C725.152,1.481 727.172,1.692 729.021,2.25 C732.945,3.435 736,6.23 736,10.915 C736,19.293 723.961,36.075 699.307,65.872 C697.838,67.648 696.33,69.461 694.779,71.315 C685.79,82.065 659.667,112.465 657.384,115.279 C657.014,115.735 649.548,124.137 646.741,127.369 C646.477,127.672 646.218,127.972 645.963,128.267 C644.699,129.734 645.259,129.079 644.28,130.229 C653.729,130.141 663.175,129.877 672.622,129.648 C677.04,129.541 680.299,129.465 683.514,129.395 C705.847,128.908 719.918,128.895 728.796,129.569 C732.648,129.861 735.534,133.224 735.242,137.079 C734.95,140.935 731.591,143.824 727.739,143.532 C719.49,142.906 705.654,142.919 683.818,143.394 C680.617,143.464 677.368,143.54 672.96,143.647 C653.606,144.116 650.154,144.191 643.879,144.236 C639.729,144.265 636.569,144.232 634.276,144.125 C632.914,144.061 631.818,143.97 630.915,143.832 C630.239,143.729 629.631,143.597 629.014,143.392 C627.212,142.791 625.779,141.922 624.661,139.719 C623.841,138.102 623.743,136.588 623.993,135.144 C624.112,134.457 624.304,133.862 624.551,133.28 C624.832,132.617 625.181,131.988 625.619,131.299 C626.236,130.327 627.079,129.168 628.164,127.775 C629.937,125.503 632.364,122.597 635.385,119.104 C635.647,118.8 635.914,118.493 636.184,118.181 C639.187,114.724 646.389,106.62 646.526,106.451 C648.958,103.453 675.178,72.94 684.052,62.327 C685.587,60.491 687.08,58.697 688.533,56.94 C698.672,44.686 706.757,34.431 712.601,26.285 C715.106,22.775 717.569,19.224 719.726,15.485 L719.675,15.487 C718.166,15.532 717.998,15.537 717.448,15.537 L674.173,15.537 C671.218,15.537 668.863,15.527 663.353,15.496 C660.98,15.482 659.858,15.476 658.507,15.47 C651.543,15.439 646.58,15.453 641.839,15.536 C637.977,15.603 634.791,12.524 634.724,8.657 C634.656,4.791 637.733,1.602 641.595,1.535 C646.459,1.45 651.512,1.436 658.57,1.467 C659.928,1.473 661.053,1.479 663.432,1.493 C668.915,1.524 671.253,1.534 674.173,1.534 L717.448,1.534 C717.786,1.534 717.96,1.529 719.253,1.49 C720.811,1.447 719.923,1.467 721.918,1.44 z" fill="#17573E"/>
    <path d="M421.393,1.507 C431.058,2.497 426.941,1.83 433.797,3.15 L434.026,3.225 L434.262,3.27 C464.86,12.347 475.438,45.585 465.492,82.168 C455.81,117.779 429.915,145 399.818,145 C387.68,145 372.569,140.199 363.709,132.918 C347.344,119.473 342.593,111.351 342.593,92.737 C342.593,82.266 345.31,70.031 349.732,58.405 C356.003,41.916 363.602,29.197 374.372,18.577 C384.855,8.456 398.739,2.705 413.214,1.633 C415.933,1.431 418.667,1.549 421.393,1.507 z M418.311,15.479 C405.219,15.621 394.028,19.968 384.189,28.553 C375.005,37.61 368.414,48.641 362.805,63.387 C358.943,73.544 356.582,84.172 356.582,92.737 C356.582,106.634 359.188,111.087 372.585,122.095 C378.791,127.195 390.758,130.997 399.818,130.997 C422.533,130.997 443.795,108.646 451.994,78.491 C455.853,64.297 456.092,50.291 452.576,39.242 C449.261,28.262 441.331,20.32 430.517,16.772 C425.308,15.767 428.496,16.29 420.909,15.502 L418.311,15.479 z" fill="#F4E057"/>
    <path d="M415.515,76.189 C418,76.655 419.538,78.008 420.806,80.086 C425.661,90.207 431.668,96.999 446.895,111.264 C446.968,111.333 446.968,111.333 447.042,111.402 C456.373,120.144 460.493,124.254 465.163,129.883 C467.631,132.857 467.223,137.272 464.251,139.742 C461.28,142.213 456.87,141.804 454.402,138.83 C450.23,133.802 446.387,129.968 437.483,121.626 C437.409,121.557 437.409,121.557 437.336,121.488 C429.273,113.935 425.684,110.41 421.506,105.686 C415.852,99.294 411.483,93 408.195,86.148 C406.523,82.663 407.99,78.48 411.472,76.806 C413.655,76.015 412.333,76.347 415.515,76.189 z" fill="#F4E057"/>
    <path d="M265.026,2.808 C266.462,2.854 265.762,2.84 267.128,2.85 C269.589,3.431 271.063,4.854 272.233,6.989 C273.742,10.548 272.082,14.659 268.526,16.169 C263.162,18.448 259.257,21.952 255.912,27.428 C253.897,30.727 249.591,31.767 246.296,29.749 C243,27.732 241.962,23.423 243.977,20.124 C248.799,12.23 254.92,6.737 263.062,3.278 C263.758,3.04 264.29,2.855 265.026,2.808 z" fill="#17573E"/>
    <path d="M155.345,118.804 C158.887,119.348 160.973,121.441 161.784,124.867 C161.887,125.645 161.917,126.876 161.983,131.011 C161.993,131.643 162.029,133.979 162.036,134.454 C162.052,135.386 162.065,136.026 162.067,136.059 C162.286,139.92 159.338,143.228 155.481,143.447 C151.624,143.667 148.32,140.715 148.101,136.855 C148.082,136.528 148.07,135.974 148.049,134.681 C148.042,134.199 148.006,131.861 147.996,131.236 C147.972,129.785 147.952,128.693 147.932,127.845 C147.921,127.365 147.91,126.982 147.899,126.708 C147.894,126.585 147.89,126.491 147.887,126.435 C147.89,126.485 147.894,126.543 147.917,126.711 C147.408,122.878 150.099,119.358 153.929,118.849 L155.345,118.804 z" fill="#17573E"/>
  </g>
</svg>
